<svg width="62" height="62" viewBox="0 0 62 62" fill="none" xmlns="http://www.w3.org/2000/svg">
<path d="M31 62C13.875 62 0 48.125 0 31C0 13.875 13.875 0 31 0C48.125 0 62 13.875 62 31C62 48.125 48.125 62 31 62ZM34.6125 44.05L25.175 35H48C49.6625 35 51 33.6625 51 32V30C51 28.3375 49.6625 27 48 27H25.175L34.6125 17.95C35.825 16.7875 35.85 14.85 34.6625 13.6625L33.2875 12.3C32.1125 11.125 30.2125 11.125 29.05 12.3L12.4625 28.875C11.2875 30.05 11.2875 31.95 12.4625 33.1125L29.05 49.7C30.225 50.875 32.125 50.875 33.2875 49.7L34.6625 48.3375C35.85 47.15 35.825 45.2125 34.6125 44.05Z" fill="#008DAB"/>
</svg>
