<svg width="39" height="61" viewBox="0 0 89 111" fill="none" xmlns="http://www.w3.org/2000/svg">
<path fill-rule="evenodd" clip-rule="evenodd" d="M50.36 71.459L54.5852 69.0208L36.6012 37.8736L30.6911 37.4751L7.47826 47.7986L3.77211 41.3789L64.1246 6.53503L67.8307 12.9548L47.2834 27.8956L44.6733 33.2143L62.6556 64.3615L66.8807 61.922L84.5473 92.522C87.1709 97.0654 85.5991 102.928 81.0557 105.551C76.5123 108.175 70.6494 106.603 68.0274 102.059L50.3592 71.4595L50.36 71.459ZM50.454 88.2673C51.9045 88.2673 53.1267 91.6864 53.5044 96.3551C58.1716 96.732 61.5908 97.955 61.5908 99.4046C61.5908 100.855 58.1716 102.077 53.5044 102.455C53.1259 107.122 51.9045 110.541 50.454 110.541C49.0052 110.541 47.7814 107.122 47.4045 102.455C42.7358 102.076 39.3167 100.855 39.3167 99.4046C39.3167 97.9558 42.7358 96.732 47.4045 96.3551C47.7814 91.6864 49.0044 88.2673 50.454 88.2673ZM25.4166 65.8321C26.867 65.8321 28.0892 69.2513 28.4669 73.9185C33.1341 74.297 36.5533 75.5184 36.5533 76.9688C36.5533 78.4177 33.1341 79.6415 28.4669 80.0192C28.0884 84.6864 26.867 88.1056 25.4166 88.1056C23.9677 88.1056 22.7439 84.6864 22.367 80.0192C17.6984 79.6407 14.2792 78.4176 14.2792 76.9688C14.2792 75.5184 17.6984 74.2962 22.367 73.9185C22.7439 69.2513 23.9669 65.8321 25.4166 65.8321ZM76.9562 24.6995C78.4051 24.6995 79.6288 28.117 80.0065 32.7859C84.6738 33.1628 88.093 34.3858 88.093 35.8363C88.093 37.2851 84.6738 38.5089 80.0065 38.8858C79.6281 43.5544 78.405 46.9736 76.9562 46.9736C75.5058 46.9736 74.2836 43.5544 73.9059 38.8858C69.2386 38.5089 65.8195 37.2859 65.8195 35.8363C65.8195 34.3858 69.2386 33.1628 73.9059 32.7859C74.2844 28.1172 75.5058 24.6995 76.9562 24.6995ZM1.69153 37.7737L0 34.8439L60.3525 0L62.0448 2.92978L1.69027 37.7737H1.69153ZM74.0412 93.3968C75.9216 92.3095 78.6048 93.4337 80.0318 95.9054C81.4606 98.3787 81.0918 101.264 79.2098 102.351C77.3278 103.436 74.6448 102.313 73.2175 99.8405C71.7904 97.3679 72.1592 94.4823 74.0404 93.3968H74.0412Z" fill="white"/>
</svg>
