<svg width="32" height="85" viewBox="0 0 62 125" fill="none" xmlns="http://www.w3.org/2000/svg">
<path d="M38.2621 119.792C38.2666 119.787 38.2914 119.775 38.3272 119.759C38.5062 119 38.7072 117.258 38.6833 113.258L38.6815 112.737C38.6815 109.637 38.1207 106.822 37.0982 104.812C37.0248 104.677 36.9055 104.533 36.7889 104.388C36.3447 103.841 35.7903 103.328 35.1405 102.86C33.8932 101.962 33.3388 101.654 33.1993 101.58C29.7215 99.7599 26.8239 97.0019 24.8084 93.6003C21.4564 87.9327 20.8232 81.2213 23.0673 75.1858L27.3197 63.7568C27.9319 61.8201 29.8594 60.8077 31.5371 60.8077H38.9009C37.7261 55.2621 35.337 50.1755 31.8968 46.2086C28.7927 42.63 27.0276 37.5983 27.0276 32.3282V5.00401C27.9565 4.7718 28.6559 3.75209 28.6559 2.5277C28.6559 1.3024 27.9565 0.282676 27.0276 0.0513988V0H12.713V0.0504801C11.7851 0.281776 11.0866 1.3024 11.0866 2.52679C11.0866 3.75209 11.786 4.77181 12.713 5.00309V32.3296C12.713 37.5999 10.9489 42.6305 7.8457 46.2091L7.84387 46.2118C2.84262 51.9776 0 60.084 0 68.5759V115.003C0 120.524 3.59051 124.999 8.01915 124.999H29.2166L29.2359 124.736C29.3937 122.592 30.9789 120.816 33.0926 120.414C34.261 120.189 36.1159 119.898 38.2619 119.791L38.2621 119.792Z" fill="white"/>
<path d="M60.1352 76.4474L55.8325 64.8808C55.7673 64.5898 55.3075 64.3833 55.0101 64.3833H31.5382C31.2399 64.3833 30.781 64.5898 30.7158 64.8808L26.4204 76.4317C24.5425 81.4816 25.1446 87.141 27.8871 91.7778C29.5172 94.5339 31.8897 96.8571 34.8517 98.4083C35.5263 98.7617 36.502 99.4344 37.2279 99.9567C38.0944 100.58 38.8874 101.301 39.5611 102.129C39.8474 102.481 40.1145 102.853 40.2871 103.193C41.7336 106.042 42.2567 109.536 42.2567 112.731C42.2586 114.604 42.4036 120.792 41.1269 122.161C40.5174 122.815 39.2004 123.326 38.4386 123.363C36.4708 123.458 34.7508 123.737 33.7605 123.926C33.2364 124.026 32.8426 124.466 32.8023 125H53.7445C53.7051 124.466 53.3132 124.026 52.7872 123.926C51.7969 123.736 50.0778 123.458 48.1091 123.363C47.3472 123.325 46.0302 122.815 45.4208 122.161C44.145 120.792 44.279 114.627 44.279 112.756C44.279 109.822 44.6838 105.961 45.9274 103.303C46.167 102.792 46.9444 101.965 47.5373 101.377C47.9935 100.924 48.4827 100.51 49.004 100.133C49.7016 99.6293 50.7736 98.8895 51.6841 98.4141C55.0911 96.6326 57.7206 93.8268 59.3378 90.5143C61.481 86.1242 61.8381 81.0247 60.1354 76.4476L60.1352 76.4474ZM57.8782 88.8602C56.9494 90.6059 55.7084 92.1974 54.1775 93.5431C51.2376 96.1258 47.4314 97.6834 43.2746 97.6834C39.1169 97.6834 35.3114 96.1259 32.3708 93.5431C30.8398 92.1975 29.5989 90.606 28.6701 88.8602C26.3828 84.561 26.1726 79.4524 27.9193 74.9063L31.6759 65.1277H54.8725L58.6291 74.9063C60.3757 79.4524 60.1665 84.5601 57.8783 88.8602H57.8782Z" fill="white"/>
<path d="M43.5935 79.1145C37.2558 82.2031 30.9439 80.3719 28.6384 79.4963C28.0803 84.279 29.9325 89.0784 33.5966 92.2009C36.2959 94.4991 39.7314 95.7667 43.2744 95.7667C46.8153 95.7667 50.2508 94.4992 52.9522 92.2009C56.7382 88.9729 58.5904 83.9496 57.8423 79.0071C56.1113 78.4454 49.0677 76.4455 43.5937 79.1145L43.5935 79.1145Z" fill="white"/>
</svg>
