<svg width="37" height="57" viewBox="0 0 67 97" fill="none" xmlns="http://www.w3.org/2000/svg">
<path d="M24.4663 0.934141C24.4341 0.397099 23.9804 -0.0169322 23.4427 0.000532759H5.21031C4.68469 -0.000139374 4.24848 0.408524 4.21689 0.934141L1.8833 35.7281H26.6956L24.4663 0.934141Z" fill="white"/>
<path d="M0 38.845H28.6218V43.4068H0V38.845Z" fill="white"/>
<path d="M4.2311 95.4245C4.27008 95.9461 4.70161 96.3521 5.22519 96.3581H23.4128C23.9357 96.3521 24.3673 95.9461 24.4062 95.4245L27.1015 46.5227H1.50635L4.2311 95.4245Z" fill="white"/>
<path d="M38.3782 53.0425H67V57.6346H38.3782V53.0425Z" fill="white"/>
<path d="M42.5338 95.4244C42.5653 95.944 42.9922 96.3513 43.5124 96.358H61.7912C62.3168 96.3587 62.753 95.95 62.7846 95.4244L65.0578 60.7957H40.3213L42.5338 95.4244Z" fill="white"/>
<path d="M45.364 19.89H51.1303V22.8258H46.9604C46.0994 22.8258 45.4017 23.5235 45.4017 24.3845C45.4017 25.2448 46.0994 25.9425 46.9604 25.9425H51.131V28.8784H49.4446C48.5876 28.8784 47.8933 29.5727 47.8933 30.429C47.8933 31.286 48.5877 31.9803 49.4446 31.9803H51.131L51.1304 49.9425H54.247V31.9803H55.9186C56.775 31.9803 57.4693 31.2859 57.4693 30.429C57.4693 29.5727 56.7749 28.8784 55.9186 28.8784H54.247V25.9425H58.4176C59.278 25.9425 59.9757 25.2448 59.9757 24.3845C59.9757 23.5235 59.278 22.8258 58.4176 22.8258H54.247V19.89H59.9986C60.8589 19.89 61.5566 19.1923 61.5566 18.3319C61.5566 17.4716 60.8589 16.7739 59.9986 16.7739H54.247V13.7627H58.4176C59.2739 13.7627 59.9683 13.0684 59.9683 12.2114C59.9683 11.3551 59.2739 10.6608 58.4176 10.6608H54.247V7.6496H55.9186C56.775 7.6496 57.4693 6.95527 57.4693 6.09897C57.4693 5.24267 56.7749 4.54834 55.9186 4.54834H49.4446C48.5876 4.54834 47.8933 5.24267 47.8933 6.09897C47.8933 6.95527 48.5876 7.6496 49.4446 7.6496H51.131V10.6608H46.9604C46.1034 10.6608 45.4091 11.3551 45.4091 12.2114C45.4091 13.0684 46.1034 13.7627 46.9604 13.7627H51.131V16.7739H45.3639C44.5036 16.7739 43.8059 17.4716 43.8059 18.3319C43.8059 19.1923 44.5036 19.89 45.3639 19.89H45.364Z" fill="white"/>
</svg>
