<svg width="29" height="29" viewBox="0 0 29 29" fill="none" xmlns="http://www.w3.org/2000/svg">
<path d="M14.5 0C6.48992 0 0 6.48992 0 14.5C0 22.5101 6.48992 29 14.5 29C22.5101 29 29 22.5101 29 14.5C29 6.48992 22.5101 0 14.5 0ZM21.6097 18.3063C21.8845 18.581 21.8845 19.0254 21.6097 19.3002L19.2944 21.6097C19.0196 21.8845 18.5752 21.8845 18.3004 21.6097L14.5 17.7742L10.6937 21.6097C10.419 21.8845 9.9746 21.8845 9.6998 21.6097L7.39032 19.2944C7.11552 19.0196 7.11552 18.5752 7.39032 18.3004L11.2258 14.5L7.39032 10.6937C7.11552 10.419 7.11552 9.9746 7.39032 9.6998L9.70565 7.38448C9.98044 7.10968 10.4248 7.10968 10.6996 7.38448L14.5 11.2258L18.3063 7.39032C18.581 7.11552 19.0254 7.11552 19.3002 7.39032L21.6155 9.70565C21.8903 9.98044 21.8903 10.4248 21.6155 10.6996L17.7742 14.5L21.6097 18.3063Z" fill="#CECDCD"/>
</svg>
